<?xml version="1.0" standalone="no"?><!DOCTYPE svg PUBLIC "-//W3C//DTD SVG 1.1//EN" "http://www.w3.org/Graphics/SVG/1.1/DTD/svg11.dtd"><svg t="1551709363043" class="icon" style="" viewBox="0 0 1024 1024" version="1.1" xmlns="http://www.w3.org/2000/svg" p-id="2174" xmlns:xlink="http://www.w3.org/1999/xlink" width="200" height="200"><defs><style type="text/css"></style></defs><path d="M528.5 895.4L919.9 504c9.4-9.4 9.4-24.6 0-33.9-9.4-9.4-24.6-9.4-33.9 0L511.5 844.5 140 473c-9.4-9.4-24.6-9.4-33.9 0-4.7 4.7-7 10.8-7 17s2.3 12.3 7 17l388.5 388.5c9.3 9.3 24.5 9.3 33.9-0.1z" fill="#AAAAAA" p-id="2175"></path><path d="M511.5 560.9c6.4 0 12.5-2.5 17-7l391.4-391.4c9.4-9.4 9.4-24.6 0-33.9-9.4-9.4-24.6-9.4-33.9 0L511.5 503 140 131.5c-9.4-9.4-24.6-9.4-33.9 0-4.7 4.7-7 10.8-7 17s2.3 12.3 7 17L494.6 554c4.5 4.4 10.6 6.9 16.9 6.9z" fill="#AAAAAA" p-id="2176"></path></svg>